<svg width="41" height="35" viewBox="0 0 41 35" fill="none" xmlns="http://www.w3.org/2000/svg">
<path d="M6.68066 26.25V17.5C6.68066 14.019 8.26431 10.6806 11.0832 8.21922C13.9021 5.75781 17.7254 4.375 21.7119 4.375C25.6984 4.375 29.5217 5.75781 32.3406 8.21922C35.1595 10.6806 36.7431 14.019 36.7431 17.5V26.25" stroke="black" stroke-width="2" stroke-linecap="round" stroke-linejoin="round"/>
<path d="M36.7431 30.625C36.7431 31.3985 36.3912 32.1404 35.7648 32.6874C35.1384 33.2344 34.2888 33.5416 33.4029 33.5416H31.7327C30.8468 33.5416 29.9972 33.2344 29.3708 32.6874C28.7444 32.1404 28.3925 31.3985 28.3925 30.625V26.25C28.3925 25.4764 28.7444 24.7346 29.3708 24.1876C29.9972 23.6406 30.8468 23.3333 31.7327 23.3333H36.7431V30.625ZM6.68066 30.625C6.68066 31.3985 7.03258 32.1404 7.65901 32.6874C8.28543 33.2344 9.13504 33.5416 10.0209 33.5416H11.6911C12.577 33.5416 13.4266 33.2344 14.053 32.6874C14.6794 32.1404 15.0314 31.3985 15.0314 30.625V26.25C15.0314 25.4764 14.6794 24.7346 14.053 24.1876C13.4266 23.6406 12.577 23.3333 11.6911 23.3333H6.68066V30.625Z" stroke="black" stroke-width="2" stroke-linecap="round" stroke-linejoin="round"/>
</svg>
