<svg width="29" height="24" viewBox="0 0 29 24" fill="none" xmlns="http://www.w3.org/2000/svg">
<path d="M7.03812 0C5.10264 0 3.3783 0.809384 2.07625 2.07625C0.809384 3.34311 0 5.06745 0 7.03812C0 8.97361 0.809384 10.6979 2.07625 12L14.0762 24L26.0762 12C27.3431 10.7331 28.1525 9.0088 28.1525 7.03812C28.1525 5.10264 27.3431 3.3783 26.0762 2.07625C24.8094 0.809384 23.085 0 21.1144 0C19.1789 0 17.4545 0.809384 16.1525 2.07625C14.8856 3.34311 14.0762 5.06745 14.0762 7.03812C14.0762 5.10264 13.2669 3.3783 12 2.07625C10.7331 0.809384 9.0088 0 7.03812 0Z" fill="black"/>
</svg>
