<svg width="39" height="35" viewBox="0 0 39 35" fill="none" xmlns="http://www.w3.org/2000/svg">
<path d="M37.6667 2.82898V13.829H27.6667" stroke="black" stroke-width="2" stroke-linecap="round" stroke-linejoin="round"/>
<path d="M1 32.1622V21.1622H11" stroke="black" stroke-width="2" stroke-linecap="round" stroke-linejoin="round"/>
<path d="M5.18333 11.9957C6.02861 9.3681 7.46522 7.0189 9.35911 5.16726C11.253 3.31562 13.5424 2.0219 16.0138 1.4068C18.4852 0.791706 21.0579 0.875288 23.492 1.64975C25.926 2.42421 28.1421 3.8643 29.9333 5.83566L37.6667 13.829M1 21.1623L8.73333 29.1557C10.5246 31.127 12.7406 32.5671 15.1747 33.3416C17.6087 34.116 20.1815 34.1996 22.6529 33.5845C25.1242 32.9694 27.4137 31.6757 29.3076 29.8241C31.2014 27.9724 32.6381 25.6232 33.4833 22.9957" stroke="black" stroke-width="2" stroke-linecap="round" stroke-linejoin="round"/>
</svg>
