<svg width="19" height="20" viewBox="0 0 19 20" fill="none" xmlns="http://www.w3.org/2000/svg">
<path d="M7.91745 0.0247757C3.55154 0.0247757 0 3.91456 0 8.69627C0 13.478 3.55154 17.3678 7.91745 17.3678C9.25211 17.3678 10.5641 17.0209 11.6726 16.352C11.7614 16.469 11.8598 16.5768 11.9667 16.674L14.2288 19.1516C14.4377 19.409 14.6924 19.617 14.9773 19.7627C15.2622 19.9084 15.5713 19.9888 15.8856 19.9989C16.1999 20.009 16.5128 19.9487 16.805 19.8216C17.0973 19.6945 17.3627 19.5033 17.5851 19.2598C17.8074 19.0163 17.982 18.7256 18.098 18.4055C18.214 18.0854 18.2691 17.7428 18.2599 17.3985C18.2506 17.0543 18.1772 16.7157 18.0442 16.4037C17.9112 16.0917 17.7213 15.8127 17.4863 15.5839L15.2241 13.1063C15.1139 12.9856 14.9926 12.8777 14.8622 12.7843C15.473 11.5703 15.8575 10.158 15.8575 8.67149C15.8575 3.88978 12.306 0 7.94007 0L7.91745 0.0247757ZM7.91745 2.50235C11.0618 2.50235 13.5728 5.25245 13.5728 8.69627C13.5728 10.3315 13.0299 11.8428 12.0798 12.9577C12.0571 12.9825 12.0345 13.0072 12.0119 13.032C11.9051 13.1293 11.8066 13.2371 11.7178 13.3541C10.7225 14.3451 9.36521 14.915 7.89483 14.915C4.75047 14.915 2.23951 12.1649 2.23951 8.72104C2.23951 5.27722 4.75047 2.52712 7.89483 2.52712L7.91745 2.50235Z" fill="black"/>
</svg>
