<svg width="31" height="25" viewBox="0 0 31 25" fill="none" xmlns="http://www.w3.org/2000/svg">
<path d="M1.60178 0.0081792C1.10359 0.0937044 0.657469 0.388069 0.361559 0.826516C0.0656491 1.26496 -0.0558104 1.81158 0.0239 2.34611C0.10361 2.88064 0.377961 3.35931 0.786599 3.6768C1.19524 3.9943 1.70469 4.12462 2.20288 4.03909H7.83816L8.17628 5.04682L9.71659 10.0855L11.2569 15.1241C11.4072 15.6481 12.0458 16.1318 12.5342 16.1318H25.6832C26.2092 16.1318 26.8103 15.6481 26.9606 15.1241L30.0036 5.04682C30.1539 4.5228 29.9285 4.03909 29.4025 4.03909H12.7221L11.2945 1.13684C11.1424 0.803718 10.9076 0.522083 10.616 0.322943C10.3243 0.123804 9.9871 0.0148847 9.64145 0.0081792L2.12774 0.0081792C2.01526 -0.0027264 1.9021 -0.0027264 1.78962 0.0081792C1.71455 0.00333774 1.63928 0.00333774 1.56421 0.0081792L1.60178 0.0081792ZM13.4734 20.1628C12.4215 20.1628 11.595 21.0496 11.595 22.1782C11.595 23.3069 12.4215 24.1937 13.4734 24.1937C14.5254 24.1937 15.3519 23.3069 15.3519 22.1782C15.3519 21.0496 14.5254 20.1628 13.4734 20.1628ZM24.744 20.1628C23.6921 20.1628 22.8656 21.0496 22.8656 22.1782C22.8656 23.3069 23.6921 24.1937 24.744 24.1937C25.7959 24.1937 26.6224 23.3069 26.6224 22.1782C26.6224 21.0496 25.7959 20.1628 24.744 20.1628Z" fill="black"/>
</svg>
